<?xml version="1.0" encoding="UTF-8" standalone="no"?>
<!DOCTYPE svg PUBLIC "-//W3C//DTD SVG 1.1//EN" "http://www.w3.org/Graphics/SVG/1.1/DTD/svg11.dtd">
<svg width="100%" height="100%" viewBox="0 0 300 300" version="1.1" xmlns="http://www.w3.org/2000/svg" xmlns:xlink="http://www.w3.org/1999/xlink" xml:space="preserve" xmlns:serif="http://www.serif.com/" style="fill-rule:evenodd;clip-rule:evenodd;stroke-linejoin:round;stroke-miterlimit:2;">
    <g>
        <g transform="matrix(1.076505,0,0,1.076505,-231.229433,-401.199811)">
            <path d="M467.18,439.89C452.1,416.88 429.49,398.94 403.72,389.36C371.91,377.22 335.4,378.45 304.39,392.44C285.12,400.97 268.06,414.32 255.01,430.87C277.63,418.52 304.53,414.27 329.81,419.39C334.9,414.54 343.77,413.85 349.09,418.68C351.86,421.05 352.5,425.52 350.24,428.45C344.83,435.81 331.59,435.15 327.61,426.63C327.97,429 328.83,431.36 330.63,433.03C337.86,439.85 352.28,437.85 355.84,428.04C379.52,439.4 399.06,459.28 409.5,483.43C417.41,480.99 425.31,478.53 433.28,476.31C430.49,473.56 427.77,470.73 424.92,468.04C427.73,466.54 430.57,465.09 433.37,463.58C435.09,464.94 436.81,466.31 438.5,467.7C444.18,464.81 450.29,462.29 456.75,462.19C459.85,462.01 462.79,463.19 465.34,464.88C465.14,467.46 464.64,470.1 463.1,472.24C459.24,477.94 453.19,481.69 447.1,484.64C447.12,486.83 447.2,489.03 447.3,491.22C444.43,492.61 441.54,493.97 438.7,495.4C437.96,490.06 437.11,484.74 436.48,479.39C418.12,489.87 399.48,499.85 380.56,509.28C349.63,524.6 318.11,538.87 285.52,550.3C272.29,554.84 258.89,559.1 245.05,561.39C239.95,562.11 234.66,562.79 229.57,561.66C226.98,561.12 224.39,559.14 224.5,556.26C224.83,552.38 227.5,549.33 229.4,546.11C226.89,548.92 224.41,551.76 222.39,554.96C220.81,557.54 219.09,560.43 219.54,563.59C220.31,566.68 223.49,568.27 226.27,569.22C232.6,570.97 239.28,570.37 245.71,569.55C256.33,568.02 266.71,565.22 276.95,562.06C295.26,556.3 313.19,549.36 330.86,541.86C359.71,529.57 387.99,515.94 415.56,501.01C423.1,530.02 417.81,561.87 401.83,587.16C395.9,584.94 388.19,585.37 384.14,590.83C389.7,586.67 398.49,587.28 402.84,592.88C405.13,595.66 404.49,600.05 401.57,602.12C398.08,604.83 393.26,604.81 389.2,603.57C371.66,622.3 347.48,634.91 321.92,637.78C364.72,650.75 413.66,638.89 446.33,608.52C468.57,588.21 483.41,560 487.52,530.16C492.02,498.93 484.58,466.19 467.18,439.89ZM381.81,397.34C377.24,396.26 372.62,398.37 369.62,401.77C371.05,397.35 375.46,394.1 380.18,394.6C384.64,394.71 388.28,398.14 389.48,402.3C387.37,400.07 384.99,397.81 381.81,397.34ZM433.11,438.18C435.15,436.06 437.75,433.94 437.71,430.71C438.02,426.99 435.04,424.39 432.18,422.63C435.95,423.2 440.24,425.63 440.4,429.88C440.68,434.16 436.68,436.91 433.11,438.18ZM437.15,590.37C433.54,590.33 430.93,587.28 429.92,584.08C432.04,586.34 434.83,588.36 438.12,587.96C441.92,588.11 444.86,585.43 447.21,582.78C445.95,587.12 441.91,590.95 437.15,590.37ZM466.18,530.57C462.87,532.51 458.29,532.01 455.65,529.18C459.61,530.43 464.13,529.62 467.15,526.67C470.03,524.27 471.13,520.57 471.73,517.02C473.21,522.12 470.85,527.99 466.18,530.57Z" style="fill:rgb(202,151,211);fill-rule:nonzero;"/>
            <path d="M308.44,437.74C308.76,436.75 309.03,435.74 309.32,434.75C310.41,434.29 311.5,433.85 312.61,433.42C309.95,433.49 308.75,431.54 308.44,429.19C308.01,430.33 307.77,431.56 307.14,432.61C306.12,432.92 305.1,433.19 304.08,433.42C305.13,433.77 306.18,434.13 307.24,434.48C307.63,435.57 308.03,436.65 308.44,437.74Z" style="fill:rgb(202,151,211);fill-rule:nonzero;"/>
            <path d="M255.28,464.89C255.53,463.77 255.79,462.65 256.06,461.53C257.18,461.16 258.31,460.79 259.43,460.41C258.35,460.11 257.29,459.81 256.22,459.51C255.79,458.37 255.35,457.24 254.9,456.11C254.66,457.2 254.42,458.29 254.17,459.39C253.16,459.77 252.17,460.19 251.22,460.72C252.17,460.96 253.12,461.2 254.08,461.43C254.47,462.58 254.87,463.73 255.28,464.89Z" style="fill:rgb(202,151,211);fill-rule:nonzero;"/>
            <path d="M296.55,478.75C298.52,479.35 300.51,479.91 302.49,480.53C303.05,482.49 303.63,484.45 304.36,486.36C304.98,484.43 305.34,482.4 306.21,480.56C308.06,479.77 310.05,479.38 311.95,478.73C310,478.08 308.05,477.52 306.1,476.9C305.51,474.99 304.98,473.08 304.38,471.19C303.58,473.06 303.03,475.02 302.45,476.97C300.47,477.52 298.49,478.08 296.55,478.75Z" style="fill:rgb(202,151,211);fill-rule:nonzero;"/>
            <path d="M362.14,488.6C362.77,488.42 364.03,488.08 364.66,487.91C362.76,487.45 361.51,486.22 361.34,484.27C361.1,484.92 360.6,486.23 360.35,486.88C359.45,487.17 358.56,487.47 357.67,487.78C358.57,488.06 359.46,488.33 360.37,488.61C360.59,489.26 361.03,490.57 361.25,491.22C361.55,490.33 361.83,489.45 362.14,488.6Z" style="fill:rgb(202,151,211);fill-rule:nonzero;"/>
            <path d="M277.04,523.41C278.01,523.13 278.99,522.87 279.97,522.62C277.89,522.16 276.22,521.03 275.99,518.69C275.74,519.61 275.48,520.55 275.25,521.48C274.27,521.77 273.3,522.07 272.33,522.38C273.29,522.75 274.24,523.11 275.21,523.48C275.46,524.48 275.72,525.48 275.98,526.49C276.35,525.46 276.7,524.43 277.04,523.41Z" style="fill:rgb(202,151,211);fill-rule:nonzero;"/>
            <path d="M375.53,555.48C376.45,555.13 377.39,554.8 378.32,554.44C377.62,554.22 376.22,553.77 375.52,553.55C375.19,552.52 374.84,551.51 374.51,550.49C374.21,551.49 373.91,552.49 373.61,553.5C372.6,553.83 371.59,554.18 370.59,554.55C371.56,554.83 372.55,555.11 373.53,555.39C373.86,556.42 374.18,557.45 374.52,558.49C374.85,557.49 375.18,556.48 375.53,555.48Z" style="fill:rgb(202,151,211);fill-rule:nonzero;"/>
            <path d="M297.75,578.6C297.36,579.68 296.98,580.78 296.6,581.87C295.57,582.23 294.55,582.6 293.54,582.99C294.56,583.32 295.59,583.64 296.62,583.98C296.99,585.06 297.38,586.14 297.78,587.21C298.07,586.11 298.36,585.01 298.65,583.93C299.77,583.6 300.91,583.29 302.04,582.95C300.94,582.58 299.83,582.24 298.73,581.91C298.39,580.8 298.07,579.7 297.75,578.6Z" style="fill:rgb(202,151,211);fill-rule:nonzero;"/>
            <path d="M345.75,602.33C346.25,600.47 346.78,598.64 347.43,596.84C349.3,596.39 351.14,595.86 352.99,595.34C351.08,594.8 349.17,594.26 347.27,593.69C346.8,591.95 346.39,590.19 345.58,588.57C345.03,590.22 344.57,591.92 344.13,593.62C342.58,594.11 341.01,594.52 339.49,595.09C340.06,596.52 342.63,596.3 344.01,597C344.54,598.77 345.1,600.57 345.75,602.33Z" style="fill:rgb(202,151,211);fill-rule:nonzero;"/>
        </g>
    </g>
</svg>
